PathFileType	4	(x/y/z)	S05_M20_T05
DataRate	CameraRate	NumFrames	NumMarkers	Units	OrigDataRate	OrigDataStartFrame	OrigNumFrames
240	240	4	50	mm	240	396	527
Frame#	Time	Sternum			R.Acromium			L.Acromium			Top.Head			R.ASIS			L.ASIS			R.PSIS			L.PSIS			R.Great.Tro			L.Great.Tro			R.Iliac.Crest			L.Iliac.Crest			V.Sacral			R.Thigh.Upper.Post			R.Thigh.Lower.Ant			R.Thigh.Lower.Post			R.Thigh.Upper.Ant			R.Knee.Lat			R.Knee.Med			R.Shank.Upper.Post			R.Shank.Lower.Ant			R.Shank.Lower.Post			R.Shank.Upper.Ant			R.Ankle.Lat			R.Ankle.Med			R.Heel.Upper			R.Heel.Med			R.Heel.Lat			R.Toe.Lat			R.Toe.Med			R.Toe.Tip			L.Thigh.Upper.Post			L.Thigh.Lower.Ant			L.Thigh.Lower.Post			L.Thigh.Upper.Ant			L.Knee.Lat			L.Shank.Upper.Post			L.Shank.Lower.Ant			L.Shank.Lower.Post			L.Shank.Upper.Ant			L.Ankle.Lat			L.Ankle.Med			L.Heel.Upper			L.Heel.Med			L.Heel.Lat			L.Toe.Lat			L.Toe.Med			L.Toe.Tip			Cervical.Spine			Back			
		X1	Y1	Z1	X2	Y2	Z2	X3	Y3	Z3	X4	Y4	Z4	X5	Y5	Z5	X6	Y6	Z6	X7	Y7	Z7	X8	Y8	Z8	X9	Y9	Z9	X10	Y10	Z10	X11	Y11	Z11	X12	Y12	Z12	X13	Y13	Z13	X14	Y14	Z14	X15	Y15	Z15	X16	Y16	Z16	X17	Y17	Z17	X18	Y18	Z18	X19	Y19	Z19	X20	Y20	Z20	X21	Y21	Z21	X22	Y22	Z22	X23	Y23	Z23	X24	Y24	Z24	X25	Y25	Z25	X26	Y26	Z26	X27	Y27	Z27	X28	Y28	Z28	X29	Y29	Z29	X30	Y30	Z30	X31	Y31	Z31	X32	Y32	Z32	X33	Y33	Z33	X34	Y34	Z34	X35	Y35	Z35	X36	Y36	Z36	X37	Y37	Z37	X38	Y38	Z38	X39	Y39	Z39	X40	Y40	Z40	X41	Y41	Z41	X42	Y42	Z42	X43	Y43	Z43	X44	Y44	Z44	X45	Y45	Z45	X46	Y46	Z46	X47	Y47	Z47	X48	Y48	Z48	X49	Y49	Z49	X50	Y50	Z50	

396	1.6458	1308.4	1236.6	337.21	1216.3	1510.9	473.17	1208.7	1505.9	144.62	1201.5	1791.7	274.48	1212.6	970.94	478.22	1253.7	982.19	233.12	1028.2	997.6	361.53	1044.6	1000.9	269.88	1115.4	892.04	526.38	1194.6	908.25	138.51	1127.3	1060.6	502.91	1172.3	1058.4	170.07	1020.3	964.75	325	1183.5	664.91	550.31	1245.4	591.67	515.22	1177.9	575.14	537.36	1247	680.86	526.91	1162.5	485.95	529.64	1185.6	459.22	400.47	939.76	413.45	503.05	914.28	326.74	494.57	875.07	377.39	480.27	979.69	363.1	516.52	813.01	300.16	471.05	852.99	293.69	388.77	753.44	337.5	405.71	730.43	319.36	373.99	724.03	317.98	439.26	762.09	155.43	485.82	800	133.82	372.08	833.45	78.54	418.88	1272.8	679.05	158.17	1367.6	636.95	197.09	1311.1	594.29	180.97	1338.2	720.28	174.73	1351.8	518.29	192.86	1301.4	314.77	193.79	1369.7	260.35	204.56	1300	243.5	211.91	1364.6	330.35	190.15	1333.8	114.38	223.92	1363.4	129.5	310.89	1275.4	66.617	276.83	1286.1	42.665	309.63	1278.2	39.258	248.39	1460.2	40.027	197.44	1481.8	53.499	315.71	1545.6	66.568	263.08	1150.3	1538.9	314.48	1035	1260.1	328.32
397	1.65	1313.4	1237.8	336.84	1221.4	1512.1	472.96	1214.2	1507.3	144.39	1206.8	1793	274.68	1217.8	972.43	477.6	1258.2	983.5	232.41	1033	998.8	361.52	1049.2	1002.1	269.84	1121.4	893.27	526.25	1198.7	909.28	138.06	1132.5	1062	502.54	1176.6	1059.7	169.64	1025.1	965.95	325.01	1192.8	666.88	550.21	1255.7	594.59	514.77	1188.5	577.03	537.28	1256	683.81	526.43	1174.5	487.81	529.47	1197.6	461.44	400.24	952.12	415.04	502.98	926.8	328.29	494.45	887.47	378.87	480.28	992.17	364.76	516.33	825.61	301.52	471	865.46	295.5	388.52	765.32	338.62	405.82	742.41	320.33	374.12	736.2	318.81	439.39	775.93	156.61	485.6	813.71	135.55	371.74	847.81	80.576	418.33	1275.8	679.59	157.8	1370.4	636.93	196.59	1313.6	594.6	180.58	1341.5	720.4	174.2	1353.8	518.27	192.47	1302.2	314.97	193.75	1370.5	260.21	204.36	1300.6	243.72	211.91	1365.5	330.25	189.89	1333.9	114.47	223.87	1363.6	129.56	310.82	1275.3	66.626	276.82	1286.1	42.691	309.61	1278.2	39.264	248.38	1460.2	39.976	197.4	1481.8	53.523	315.69	1545.6	66.504	263.03	1155.6	1540.2	314.25	1040.1	1261.5	327.83
398	1.6542	1318.3	1239	336.48	1226.5	1513.4	472.75	1219.6	1508.7	144.18	1212.1	1794.4	274.91	1223	973.94	476.99	1262.8	984.8	231.71	1037.8	1000	361.55	1053.9	1003.3	269.84	1127.3	894.56	526.15	1202.8	910.32	137.62	1137.6	1063.4	502.19	1181	1061	169.21	1029.8	967.16	325.05	1202.1	668.96	550.1	1265.9	597.63	514.3	1199.1	579.04	537.19	1264.9	686.84	525.94	1186.4	489.78	529.27	1209.5	463.8	399.98	964.47	416.56	502.86	939.38	329.75	494.29	899.89	380.23	480.24	1004.7	366.39	516.09	838.3	302.7	470.89	878.03	297.15	388.23	777.27	339.51	405.89	754.47	321.05	374.19	748.45	319.37	439.47	789.95	157.58	485.32	827.64	137.09	371.33	862.41	82.467	417.71	1278.7	680.13	157.42	1373.1	636.88	196.06	1315.9	594.91	180.17	1344.7	720.5	173.65	1355.6	518.24	192.07	1303	315.15	193.62	1371.2	260.08	204.14	1301.2	243.92	211.85	1366.5	330.13	189.62	1334	114.55	223.8	1363.7	129.63	310.72	1275.3	66.638	276.79	1286.1	42.721	309.59	1278.2	39.268	248.36	1460.2	39.915	197.36	1481.7	53.553	315.67	1545.6	66.446	262.97	1160.8	1541.5	314.01	1045.1	1262.9	327.37
399	1.6583	1323.2	1240.2	336.12	1231.6	1514.6	472.55	1225	1510	143.97	1217.3	1795.7	275.18	1228.2	975.46	476.38	1267.2	986.1	231.01	1042.6	1001.2	361.6	1058.5	1004.6	269.85	1133.2	895.88	526.07	1206.9	911.36	137.19	1142.8	1064.8	501.85	1185.3	1062.3	168.8	1034.6	968.39	325.13	1211.4	671.13	549.99	1276	600.77	513.81	1209.6	581.16	537.08	1273.8	689.97	525.43	1198.3	491.86	529.03	1221.3	466.29	399.68	976.79	418	502.68	952.02	331.11	494.07	912.32	381.46	480.14	1017.2	367.98	515.81	851.06	303.69	470.74	890.68	298.64	387.89	789.28	340.17	405.9	766.62	321.53	374.2	760.78	319.68	439.5	804.15	158.33	484.97	841.77	138.46	370.86	877.24	84.212	417.03	1281.5	680.66	157.04	1375.7	636.82	195.5	1318.2	595.21	179.76	1347.8	720.58	173.07	1357.4	518.21	191.66	1303.8	315.32	193.41	1371.9	259.95	203.9	1301.8	244.1	211.74	1367.4	330.02	189.32	1334.1	114.63	223.72	1363.9	129.7	310.61	1275.3	66.652	276.77	1286.1	42.757	309.57	1278.2	39.272	248.35	1460.2	39.843	197.32	1481.7	53.588	315.63	1545.7	66.392	262.91	1166	1542.9	313.78	1050.1	1264.3	326.93
